# xmcd
# 
# Track frame offsets:
#     150
#     4537
#     20615
#     44296
#     64167
#     87816
#     114694
#     133816
#     148909
#     163421
#     188036
# 
# Disc length: 2819
# 
# Revision: 12
# Processed by: cddbd v1.5.2PL0 Copyright (c) Steve Scherf et al.
# Submitted via: fre:ac v1.0.27
# 
DISCID=9a0b010b
DTITLE=Red - End of Silence
DYEAR=2006
DGENRE=Hard Rock
TTITLE0=Intro (End of Silence)
TTITLE1=Breathe Into Me
TTITLE2=Let Go
TTITLE3=Already Over
TTITLE4=Lost
TTITLE5=Pieces
TTITLE6=Break Me Down
TTITLE7=Wasting Time
TTITLE8=Gave It All Away
TTITLE9=Hide
TTITLE10=Already Over, Pt. 2
EXTD=YEAR: 2006
EXTT0=
EXTT1=
EXTT2=
EXTT3=
EXTT4=
EXTT5=
EXTT6=
EXTT7=
EXTT8=
EXTT9=
EXTT10=
PLAYORDER=
